<svg xmlns="http://www.w3.org/2000/svg" viewBox="0 0 100 100" fill="none">
  <!-- AI Brain Shape -->
  <circle cx="50" cy="50" r="35" fill="#0b74de" opacity="0.1"/>
  
  <!-- Neural Network Pattern -->
  <circle cx="30" cy="35" r="4" fill="#0b74de"/>
  <circle cx="50" cy="30" r="4" fill="#0b74de"/>
  <circle cx="70" cy="35" r="4" fill="#0b74de"/>
  <circle cx="35" cy="55" r="4" fill="#0b74de"/>
  <circle cx="50" cy="60" r="4" fill="#0b74de"/>
  <circle cx="65" cy="55" r="4" fill="#0b74de"/>
  
  <!-- Connecting Lines -->
  <line x1="30" y1="35" x2="50" y2="30" stroke="#0b74de" stroke-width="1.5" opacity="0.6"/>
  <line x1="50" y1="30" x2="70" y2="35" stroke="#0b74de" stroke-width="1.5" opacity="0.6"/>
  <line x1="30" y1="35" x2="35" y2="55" stroke="#0b74de" stroke-width="1.5" opacity="0.6"/>
  <line x1="50" y1="30" x2="50" y2="60" stroke="#0b74de" stroke-width="1.5" opacity="0.6"/>
  <line x1="70" y1="35" x2="65" y2="55" stroke="#0b74de" stroke-width="1.5" opacity="0.6"/>
  <line x1="35" y1="55" x2="50" y2="60" stroke="#0b74de" stroke-width="1.5" opacity="0.6"/>
  <line x1="50" y1="60" x2="65" y2="55" stroke="#0b74de" stroke-width="1.5" opacity="0.6"/>
  
  <!-- Lightning Bolt Accent -->
  <path d="M55 20 L50 40 L57 40 L52 60 L58 45 L53 45 Z" fill="#22c55e" opacity="0.9"/>
</svg>
